HIERARCHY
ROOT Hips
{
	OFFSET 0.00000 0.00000 0.00000
	CHANNELS 6 Xposition Yposition Zposition Zrotation Yrotation Xrotation 
	JOINT LHipJoint
	{
		OFFSET 0 0 0
		CHANNELS 3 Zrotation Yrotation Xrotation
		JOINT LeftUpLeg
		{
			OFFSET 1.52977 -1.71332 0.88991
			CHANNELS 3 Zrotation Yrotation Xrotation
			JOINT LeftLeg
			{
				OFFSET 2.23949 -6.15296 0.00000
				CHANNELS 3 Zrotation Yrotation Xrotation
				JOINT LeftFoot
				{
					OFFSET 2.68396 -7.37412 0.00000
					CHANNELS 3 Zrotation Yrotation Xrotation
					JOINT LeftToeBase
					{
						OFFSET 0.20538 -0.56428 2.52710
						CHANNELS 3 Zrotation Yrotation Xrotation
						End Site
						{
							OFFSET 0.00000 -0.00000 1.29919
						}
					}
				}
			}
		}
	}
	JOINT RHipJoint
	{
		OFFSET 0 0 0
		CHANNELS 3 Zrotation Yrotation Xrotation
		JOINT RightUpLeg
		{
			OFFSET -1.45689 -1.71333 0.88991
			CHANNELS 3 Zrotation Yrotation Xrotation
			JOINT RightLeg
			{
				OFFSET -2.36700 -6.50329 0.00000
				CHANNELS 3 Zrotation Yrotation Xrotation
				JOINT RightFoot
				{
					OFFSET -2.69814 -7.41308 0.00000
					CHANNELS 3 Zrotation Yrotation Xrotation
					JOINT RightToeBase
					{
						OFFSET -0.18734 -0.51471 2.37479
						CHANNELS 3 Zrotation Yrotation Xrotation
						End Site
						{
							OFFSET -0.00000 -0.00000 1.22113
						}
					}
				}
			}
		}
	}
	JOINT LowerBack
	{
		OFFSET 0 0 0
		CHANNELS 3 Zrotation Yrotation Xrotation
		JOINT Spine
		{
			OFFSET 0.04294 2.14638 -0.31163
			CHANNELS 3 Zrotation Yrotation Xrotation
			JOINT Spine1
			{
				OFFSET -0.00400 2.17216 0.01486
				CHANNELS 3 Zrotation Yrotation Xrotation
				JOINT Neck
				{
					OFFSET 0 0 0
					CHANNELS 3 Zrotation Yrotation Xrotation
					JOINT Neck1
					{
						OFFSET 0.03869 1.76598 0.14916
						CHANNELS 3 Zrotation Yrotation Xrotation
						JOINT Head
						{
							OFFSET -0.00760 1.75513 -0.18948
							CHANNELS 3 Zrotation Yrotation Xrotation
							End Site
							{
								OFFSET -0.00601 1.82444 -0.08310
							}
						}
					}
				}
				JOINT LeftShoulder
				{
					OFFSET 0 0 0
					CHANNELS 3 Zrotation Yrotation Xrotation
					JOINT LeftArm
					{
						OFFSET 3.73696 0.92058 0.01733
						CHANNELS 3 Zrotation Yrotation Xrotation
						JOINT LeftForeArm
						{
							OFFSET 5.22771 -0.00000 0.00000
							CHANNELS 3 Zrotation Yrotation Xrotation
							JOINT LeftHand
							{
								OFFSET 3.45251 -0.00000 0.00000
								CHANNELS 3 Zrotation Yrotation Xrotation
								JOINT LeftFingerBase
								{
									OFFSET 0 0 0
									CHANNELS 3 Zrotation Yrotation Xrotation
									JOINT LeftHandIndex1
									{
										OFFSET 0.55212 -0.00000 0.00000
										CHANNELS 3 Zrotation Yrotation Xrotation
										End Site
										{
											OFFSET 0.44513 -0.00000 0.00000
										}
									}
								}
								JOINT LThumb
								{
									OFFSET 0 0 0
									CHANNELS 3 Zrotation Yrotation Xrotation
									End Site
									{
										OFFSET 0.45193 -0.00000 0.45193
									}
								}
							}
						}
					}
				}
				JOINT RightShoulder
				{
					OFFSET 0 0 0
					CHANNELS 3 Zrotation Yrotation Xrotation
					JOINT RightArm
					{
						OFFSET -3.63819 0.83094 -0.13694
						CHANNELS 3 Zrotation Yrotation Xrotation
						JOINT RightForeArm
						{
							OFFSET -5.23980 -0.00000 -0.00000
							CHANNELS 3 Zrotation Yrotation Xrotation
							JOINT RightHand
							{
								OFFSET -3.48042 -0.00000 -0.00000
								CHANNELS 3 Zrotation Yrotation Xrotation
								JOINT RightFingerBase
								{
									OFFSET 0 0 0
									CHANNELS 3 Zrotation Yrotation Xrotation
									JOINT RightHandIndex1
									{
										OFFSET -0.61871 -0.00000 0.00000
										CHANNELS 3 Zrotation Yrotation Xrotation
										End Site
										{
											OFFSET -0.49882 -0.00000 0.00000
										}
									}
								}
								JOINT RThumb
								{
									OFFSET 0 0 0
									CHANNELS 3 Zrotation Yrotation Xrotation
									End Site
									{
										OFFSET -0.50644 -0.00000 0.50644
									}
								}
							}
						}
					}
				}
			}
		}
	}
}
MOTION
Frames: 7
Frame Time: 0.1
0.00 0.00 0.00 0 0 0 0 0 0 -21 0 0 0 0 0 0 0 0 0 0 0 0 0 0 21 0 0 0 0 0 0 0 0 0 0 0 0 0 0 0 0 0 0 0 0 0 0 -16 0 0 21 0 0 11 0 0 0 -8 0 0 0 0 0 0 0 0 0 0 0 0 0 0 0 0 0 0 0 0 8 0 0 0 0 0 0 0 0 0 0 0 0 0 0 0 0 0
0.00 0.00 0.00 -77.7627 86.6959 -78.6089 0.0000 0.0000 0.0000 -16.1556 7.2345 2.2054 0.7506 5.5336 15.4370 -0.0045 7.5302 5.1757 0.0013 -0.2340 -0.6431 0.0000 0.0000 0.0000 22.4637 2.0021 -6.4688 -3.2547 -11.0963 32.6053 0.1597 -7.4006 -5.0501 -0.1235 -2.2658 6.2408 2.4469 -0.5078 -2.2499 -0.0231 -0.7509 0.8048 -1.4251 -0.3422 2.0555 1.4384 -0.3958 -8.0332 1.8272 -0.8857 12.4134 0.2756 -0.2111 5.0550 -0.0000 -0.0000 0.0000 -89.5098 0.4146 15.7057 10.7457 -17.8974 -1.6969 -0.0000 0.0000 -13.4372 19.5081 20.4762 7.0648 -7.1250 0.0000 -0.0000 -9.1233 51.3662 -1.4407 -0.0000 -0.0000 0.0000 91.6384 -2.4181 19.9992 -12.4514 20.4782 -2.2577 0.0000 0.0000 4.6834 -19.4615 -7.9486 2.7975 7.1250 -0.0000 -0.0000 6.3497 -38.3318 1.0477
0.00 0.00 0.00 -139.5770 84.9395 -135.4120 0.0000 0.0000 0.0000 -15.4859 13.0314 21.5662 0.0000 -0.0000 -0.0000 1.1197 8.5556 18.9685 2.9226 -10.5687 -30.8387 0.0000 0.0000 0.0000 25.0802 14.2300 -25.0868 -3.2961 -11.1596 32.8200 0.2644 -9.8194 0.4096 -0.0020 -0.2882 0.7917 0.4979 -2.4665 -0.2961 0.4074 -3.2879 -0.3342 0.1341 -1.6440 -0.1803 -0.4098 -1.0041 -7.2751 3.8110 -1.5747 6.2094 1.2427 -0.6263 3.3333 0.0000 -0.0000 0.0000 -89.0192 1.8478 12.3129 11.2509 -18.6718 -1.8554 -0.0000 0.0000 -13.5271 18.6254 13.5551 4.5166 -7.1250 0.0000 -0.0000 -8.0593 44.1050 0.1793 0.0000 -0.0000 0.0000 89.6813 -4.5431 11.4510 -10.8049 17.9886 -1.7152 0.0000 0.0000 8.5153 -19.0890 -7.3681 2.5412 7.1250 -0.0000 -0.0000 6.5889 -37.6974 1.1906
0.00 0.00 0.00 -131.3420 84.6368 -129.5830 0.0000 0.0000 0.0000 -13.5173 11.7654 17.3607 0.7004 5.3495 14.9082 2.8440 8.8501 30.4421 1.6176 -8.0196 -22.7736 0.0000 0.0000 0.0000 27.0657 9.9336 -18.5199 -3.2455 -11.0823 32.5578 0.0343 -3.6154 0.2979 -0.0307 1.1314 -3.1103 2.3980 -2.2315 0.4099 0.6884 -2.9497 -0.3517 -0.6052 -1.4815 -0.6746 -0.3104 -0.8681 -6.5595 2.9102 -1.3548 7.3718 0.9451 -0.5443 3.5791 -0.0000 0.0000 0.0000 -89.4196 3.1919 11.7522 11.6167 -19.2273 -1.9742 -0.0000 0.0000 -15.4044 18.4097 11.4467 3.7792 -7.1250 0.0000 -0.0000 -7.8256 41.8965 0.6032 -0.0000 0.0000 0.0000 89.2381 -4.0102 10.7793 -10.4995 17.5171 -1.6221 0.0000 0.0000 8.6769 -19.2208 -7.3370 2.5493 7.1250 -0.0000 -0.0000 6.4732 -37.6733 1.1734
0.00 0.00 0.00 -115.5960 84.5661 -115.1760 0.0000 0.0000 0.0000 -12.0413 9.6698 8.7329 3.2466 11.0839 32.5633 3.6460 8.4447 34.7115 0.0796 -1.8194 -5.0069 0.0000 0.0000 0.0000 29.3413 8.4319 -13.7568 -3.1394 -10.9174 32.0020 0.0337 -3.2548 -1.1699 -0.0779 1.8010 -4.9561 3.7575 -1.9737 0.1762 0.8890 -2.6078 -0.1322 -1.1758 -1.3062 -0.3608 0.0768 -0.5849 -6.4217 2.8173 -1.0209 8.6537 0.8711 -0.3524 3.9935 -0.0000 0.0000 0.0000 -89.3829 3.0856 11.1010 11.3341 -18.7986 -1.8822 -0.0000 0.0000 -14.7932 18.5591 11.1585 3.7175 -7.1250 0.0000 -0.0000 -7.6403 41.6116 0.6428 -0.0000 0.0000 0.0000 89.1106 -2.2697 11.2428 -10.4690 17.4699 -1.6129 0.0000 0.0000 9.0885 -19.7306 -7.1713 2.5636 7.1250 -0.0000 -0.0000 6.0204 -37.5321 1.1114
0.00 0.00 0.00 -111.8160 83.7068 -112.6860 0.0000 0.0000 0.0000 -10.8088 5.7353 0.8135 6.0260 14.4535 45.0861 1.4274 4.3111 21.5889 0.3444 -3.7711 -10.4336 0.0000 0.0000 0.0000 31.1737 5.8976 -9.9899 -3.0474 -10.7714 31.5127 0.0195 -2.5725 -1.6814 -0.3580 3.8438 -10.6378 5.2990 -1.9958 0.9134 0.9930 -2.5889 0.2288 -1.9072 -1.2926 -0.4660 0.0199 -0.5755 -6.1962 2.9969 -1.0127 8.5533 0.9408 -0.3441 3.9153 0.0000 -0.0000 0.0000 -89.1265 2.1984 10.6891 10.8436 -18.0481 -1.7271 -0.0000 0.0000 -14.1212 18.3597 11.2251 3.6964 -7.1250 0.0000 -0.0000 -7.8284 41.6618 0.6491 0.0000 -0.0000 0.0000 89.0588 -1.8901 14.9775 -11.9373 19.7106 -2.0811 0.0000 0.0000 4.0877 -20.0128 -7.2941 2.6476 7.1250 -0.0000 -0.0000 5.7963 -37.6799 1.0487
0.00 0.00 0.00 -109.5210 82.6937 -111.4630 0.0000 0.0000 0.0000 -9.7583 1.8278 -6.0556 7.5212 15.7555 50.8189 0.1193 2.7454 6.1522 1.1958 -6.9387 -19.5340 0.0000 0.0000 0.0000 32.7281 4.2919 -6.9019 -2.9397 -10.5969 30.9320 0.0165 -2.5463 -2.1349 -0.3749 3.9325 -10.8869 6.7108 -1.8851 1.9171 1.1541 -2.3534 0.7372 -2.5078 -1.1616 -0.5374 -0.1048 -0.6902 -6.0719 3.2328 -1.1622 7.8983 1.0288 -0.4221 3.6664 0.0000 -0.0000 0.0000 -88.9949 0.9844 10.5086 10.6870 -17.8069 -1.6789 -0.0000 0.0000 -13.7390 18.5084 10.9243 3.6300 -7.1250 0.0000 -0.0000 -7.6424 41.3635 0.6900 0.0000 -0.0000 0.0000 88.9027 -1.8268 17.4659 -12.9027 21.1445 -2.4181 0.0000 0.0000 2.4178 -20.2384 -7.4868 2.7503 7.1250 -0.0000 -0.0000 5.6283 -37.8984 0.9878
